<?xml version="1.0" encoding="utf-8"?>
<!-- Generator: Adobe Illustrator 19.0.0, SVG Export Plug-In . SVG Version: 6.00 Build 0)  -->
<!DOCTYPE svg PUBLIC "-//W3C//DTD SVG 1.1//EN" "http://www.w3.org/Graphics/SVG/1.1/DTD/svg11.dtd">
<svg version="1.1" id="Calque_1" xmlns="http://www.w3.org/2000/svg" xmlns:xlink="http://www.w3.org/1999/xlink" x="0px" y="0px"
	 viewBox="0 0 1200 250" style="enable-background:new 0 0 1200 250;" xml:space="preserve">
<style type="text/css">
	.st0{fill:#FFFFFF;}
</style>
<g>
	<polygon class="st0" points="40.8,139.8 40.8,0 29.7,0 29.7,164.3 33.9,164.3 33.9,165.2 34.6,164.3 39.8,164.3 133.8,0 121,0 	"/>
	<rect x="9.9" y="41.8" class="st0" width="11.1" height="122.4"/>
	<rect x="9.9" class="st0" width="11.1" height="28"/>
	<rect x="140.5" class="st0" width="11.1" height="28"/>
	<rect x="140.5" y="41.8" class="st0" width="11.1" height="122.4"/>
	<path class="st0" d="M18.3,177.9h-6.4c-1.2,0-2,1-2,2v51.7c0,1,0.7,2,2,2s2-1,2-2v-18.1h4.5c5.7,0,8.7-3.2,8.7-8.4v-19
		C26.7,181.1,24,177.9,18.3,177.9z M23,205.3c0,3.2-1.7,4.7-4.9,4.7h-4.2v-28.4h4.2c3.5,0,4.9,1.5,4.9,4.7V205.3z"/>
	<path class="st0" d="M58.1,178.1c-1,0-2,0.5-2,2c0,47.5,0.2,44.5-0.2,46.5c-0.2,1.5-1,2.7-2.5,3.5c-1.2,0.7-3.7,0.7-5.2,0
		c-2.2-1-2.7-3.7-2.7-6.2v-43.8c0-0.5-0.2-1-0.5-1.2c-1.2-1.2-3.2-0.5-3.2,1.2c0,47.2-0.2,45,0.5,47.5c1.7,7.4,9.9,6.9,13.1,5.7
		c3.7-1.7,4.9-5.4,4.9-9.6v-43.5C59.9,178.8,59.1,178.1,58.1,178.1z"/>
	<path class="st0" d="M87.3,230h-8.7v-50c0-2.7-3.7-2.7-3.7,0v53.7h12.6C89.8,233.8,89.8,230,87.3,230z"/>
	<path class="st0" d="M119.7,210.8c-1.5-2-3-4.2-4-5.2c-4.2-4.2-6.7-6.9-7.4-7.9c-1.2-2-1-3.2-1-11.6c0-3.2,1.7-4.7,4.9-4.7
		c3.5,0,4.9,1.5,4.9,4.9v7.9c0,2.5,3.7,2.7,3.7,0v-7.7c0-5.7-3-8.7-8.7-8.7c-5.2,0-8.7,3-8.7,8.4c0,8.4,0,9.2,0.2,10.9
		c0.2,1.2,1,2.7,3,5.2c1.2,1.2,6.4,6.4,6.4,6.7c4,3.7,4.2,5.4,4.2,7.9v8.2c0,1.5-0.5,2.7-1.2,4c-0.7,1-2,1.5-3.7,1.5
		c-3.7,0-5.4-2-5.4-5.4v-9.6c0-2.5-3.7-2.7-3.7,0v9.6c0,2.7,0.7,4.7,2.2,6.4c3.5,3.7,13.1,4,15.3-3c0.7-2,0.5-2.7,0.5-11.9
		C121.5,214.5,121,212.5,119.7,210.8z"/>
	<path class="st0" d="M1216,233l-0.8-3.5H202.1c0,0,0,0,0,0c-4.7,0-9.2,0-13.9,0l0,0c-3.5-10.1-3.2-9.6-3.5-9.9
		c-0.5-0.5-1-0.7-1.7-0.5c-0.7,0.2-1,0.7-1.2,1.5c-1,3.5-2.7,9.9-4.7,16.6c-0.2-0.2,0.2,1.7-5.7-33.9c-0.2-2-3-2.2-3.5,0
		c-2,8.2-2.2,8.7-6.7,26.7c-3.2,0-7.8,0-11.4,0h-1.7h-8.4v-26h6.7c2.5,0,2.5-3.5,0-3.5h-6.7v-19.3h10.1c2.5,0,2.2-3.5,0-3.5H138
		c-1.2,0-2,1-2,2v51.7c0,1,0.7,2,2,2h10.1h1.7c3.9,0,8.9,0,12.4,0c1.2,0,1.7-0.5,2-1.5c1.5-5.9,1.2-5.2,4.9-19.5
		c0.2,0-0.2-2.2,5.4,32.7c0.2,1.2,0.7,1.7,1.7,1.7s1.7-0.5,2-1.5c5.7-19.8,5.2-18.6,5.4-18.6c0.5,1.5,1,3.2,1.5,4.7
		c0.2,1,0.7,1.5,2,1.5l0,0c4.2,0,8.2,0,12.5,0v0H1216z"/>
</g>
</svg>
