<?xml version="1.0" encoding="utf-8"?>
<!-- Generator: Adobe Illustrator 19.0.0, SVG Export Plug-In . SVG Version: 6.00 Build 0)  -->
<!DOCTYPE svg PUBLIC "-//W3C//DTD SVG 1.1//EN" "http://www.w3.org/Graphics/SVG/1.1/DTD/svg11.dtd">
<svg version="1.1" id="Calque_1" xmlns="http://www.w3.org/2000/svg" xmlns:xlink="http://www.w3.org/1999/xlink" x="0px" y="0px"
	 viewBox="0 0 448.3 143.6" style="enable-background:new 0 0 448.3 143.6;" xml:space="preserve">
<style type="text/css">
	.st0{fill:#FFFFFF;}
	.st1{display:none;}
	.st2{display:inline;stroke:#000000;stroke-width:4;stroke-miterlimit:10;}
	.st3{display:inline;}
	.st4{stroke:#000000;stroke-width:4;stroke-miterlimit:10;}
</style>
<g id="XMLID_50_">
	<path id="XMLID_53_" class="st0" d="M152.1,15.1h-13.4c-0.6,0-1.1,0.2-1.5,0.6c-0.4,0.4-0.6,0.9-0.6,1.5v109c0,0.6,0.2,1.1,0.6,1.5
		c0.4,0.4,0.9,0.6,1.4,0.6c0.6,0,1.1-0.2,1.4-0.6c0.4-0.4,0.6-0.9,0.6-1.5V87.6c0-0.9,0.4-1.4,1.3-1.4H152c5.5,0,9.6-1.4,12.2-4.1
		c2.6-2.8,3.9-6.5,3.9-11.4V30.5c0-4.9-1.3-8.7-3.9-11.4C161.6,16.5,157.6,15.1,152.1,15.1z M164.1,70.8c0,3.9-1,6.8-3.1,8.9
		c-2,2.1-5.2,3.1-9.4,3.1h-9.6c-0.9,0-1.3-0.4-1.3-1.3V19.9c0-0.9,0.4-1.4,1.3-1.4h9.6c8.3,0,12.5,4,12.5,11.9V70.8z"/>
	<path id="XMLID_54_" class="st0" d="M234.9,15.2c-1.3,0-1.9,0.8-1.9,2.3v91.6c0,2.2-0.2,4.3-0.7,6.3c-0.5,2-1.2,3.7-2.3,5.1
		c-1,1.5-2.4,2.6-4.1,3.4c-1.7,0.8-3.8,1.2-6.3,1.2c-2.5,0-4.6-0.4-6.3-1.2c-1.7-0.8-3-1.9-4.1-3.4c-1-1.5-1.8-3.2-2.3-5.1
		c-0.5-2-0.7-4.1-0.7-6.3V17.3c0-0.6-0.2-1.1-0.6-1.5c-0.4-0.4-0.9-0.6-1.4-0.6c-0.6,0-1.1,0.2-1.4,0.6c-0.4,0.4-0.6,0.9-0.6,1.5
		v91.4c0,2.8,0.3,5.5,0.9,7.9c0.6,2.4,1.6,4.5,3,6.3c1.4,1.8,3.2,3.1,5.4,4.1c2.2,1,4.9,1.5,8.1,1.5c3.2,0,5.8-0.5,8-1.5
		c2.1-1,3.9-2.4,5.3-4.1c1.4-1.8,2.4-3.9,3-6.3c0.6-2.4,1-5.1,1-7.9V17.6C237,16,236.3,15.2,234.9,15.2z"/>
	<path id="XMLID_55_" class="st0" d="M296.3,125.1h-19c-0.9,0-1.3-0.4-1.3-1.3V17.3c0-1.5-0.7-2.2-2.1-2.2c-1.3,0-1.9,0.7-1.9,2.2
		v111.2h24.4c1.2,0,1.8-0.6,1.8-1.7C298.1,125.7,297.5,125.1,296.3,125.1z"/>
	<path id="XMLID_56_" class="st0" d="M353.6,72.6c-8.9-8.9-14.2-14.5-16-17c-1.7-2.5-2.6-5.4-2.6-8.9V30.4c0-3.9,1.1-6.9,3.3-8.9
		c2.2-2,5.1-3.1,8.8-3.1c4.2,0,7.3,1,9.3,2.9c2,2,3,5.1,3,9.3V47c0,0.6,0.2,1.1,0.5,1.5c0.3,0.4,0.8,0.6,1.3,0.6
		c1.3,0,1.9-0.7,1.9-2V31c0-10.6-5.3-15.8-16-15.8c-5,0-8.9,1.3-11.7,4c-2.9,2.7-4.3,6.4-4.3,11.3v16.3c0,2,0.2,3.9,0.7,5.7
		c0.5,1.7,1.2,3.4,2.2,5c1,1.6,2.2,3.2,3.6,4.9c1.4,1.7,5.9,6.3,13.4,13.9c1.8,1.7,3.3,3.3,4.4,4.7c1.2,1.4,2.1,2.8,2.9,4.1
		c0.8,1.4,1.3,2.8,1.6,4.3c0.3,1.5,0.4,3.2,0.4,5V112c0,3.7-1,6.8-3,9.3c-2,2.6-5.2,3.8-9.5,3.8c-4.4,0-7.6-1.2-9.8-3.6
		c-2.2-2.4-3.3-5.6-3.3-9.7v-20c0-1.4-0.7-2-2-2c-1.3,0-1.9,0.7-1.9,2v20c0,4.9,1.4,8.9,4.2,12c2.8,3.1,7.1,4.6,12.9,4.6
		c2.8,0,5.3-0.4,7.4-1.3c2.1-0.9,3.9-2,5.3-3.6c1.4-1.5,2.4-3.3,3.1-5.4c0.6-2,1-4.2,1-6.5V93.9c0-4.2-1.1-7.9-3.2-11.2
		C359.3,79.3,356.7,76,353.6,72.6z"/>
	<path id="XMLID_57_" class="st0" d="M426.5,125.1h-21.9c-0.9,0-1.3-0.4-1.3-1.3V67.7c0-0.9,0.4-1.4,1.3-1.4h15
		c1.2,0,1.8-0.6,1.8-1.7c0-1.1-0.6-1.7-1.8-1.7h-15c-0.9,0-1.3-0.4-1.3-1.3V19.9c0-0.9,0.4-1.4,1.3-1.4h21.9c1.1,0,1.7-0.6,1.7-1.7
		c0-1.1-0.6-1.7-1.7-1.7h-25.1c-0.6,0-1.1,0.2-1.5,0.6c-0.4,0.4-0.6,0.9-0.6,1.5v109c0,0.6,0.2,1.1,0.6,1.5c0.4,0.4,0.9,0.6,1.5,0.6
		h25.1c1.1,0,1.7-0.6,1.7-1.7C428.2,125.7,427.7,125.1,426.5,125.1z"/>
	<polygon id="XMLID_58_" class="st0" points="43.6,113.6 43.6,15.1 36.7,15.1 36.7,128.5 43,128.5 108.1,15.1 100.1,15.1 	"/>
	<rect id="XMLID_59_" x="23.1" y="44.3" class="st0" width="6.9" height="84.3"/>
	<rect id="XMLID_60_" x="23.1" y="15.1" class="st0" width="6.9" height="18.6"/>
	<rect id="XMLID_61_" x="113.8" y="15.1" class="st0" width="6.9" height="18.6"/>
	<rect id="XMLID_62_" x="113.8" y="44.2" class="st0" width="6.9" height="84.3"/>
</g>
<g id="IVI_8_" class="st1">
	<polygon id="XMLID_11_" class="st2" points="102.3,10 41.7,115.5 40.6,117.4 40.6,115.2 40.6,10 37.5,10 37.5,123.3 40.9,123.3 
		105.9,10 	"/>
	<g id="XMLID_16_" class="st3">
		<rect id="XMLID_10_" x="23.3" y="40.1" class="st4" width="3.1" height="83.2"/>
		<rect id="XMLID_3_" x="23.3" y="10" class="st4" width="3.1" height="15.2"/>
	</g>
	<g id="XMLID_2_" class="st3">
		<rect id="XMLID_13_" x="117.3" y="10" class="st4" width="3.1" height="15.2"/>
		<rect id="XMLID_33_" x="117.3" y="40.1" class="st4" width="3.1" height="83.2"/>
	</g>
</g>
</svg>
