<svg xmlns="http://www.w3.org/2000/svg"><symbol id="icon-pulse" viewBox="0 0 474.5 416.1"><path d="M172.2 97.3c-6.3 25.4-12.4 49.9-18.5 74.4-8.7 34.8-17.3 69.7-26 104.5-2.4 9.7-7.9 14-17.9 14H0v-31.9h99.1c6.9-27.8 13.8-55.2 20.6-82.6 13.4-53.7 26.7-107.4 40.1-161.1C162.7 3 171.7-2.5 181.1 1.3c6.1 2.5 9.4 7.4 10.4 13.7 7.1 42.3 14.1 84.6 21.2 127 7.4 44.8 14.9 89.6 22.3 134.4 2.5 15.1 5.1 30.2 7.6 45.3.3 1.6.6 3.1 1.8 4.7 3.7-12.9 7.5-25.8 11.2-38.7 10.7-37.4 21.4-74.7 32-112.1 1.9-6.6 5.4-11.6 12.2-13.1 6.3-1.4 12 .1 16.1 5.5 1.7 2.2 2.8 4.9 3.7 7.5 9.2 27.4 18.3 54.8 27.5 82.7h127.3v32.1h-136c-10.7 0-15.5-3.4-18.8-13.5-4.8-14.3-9.5-28.7-14.6-44-.9 2.4-1.6 4.1-2.1 5.9-15.7 54.8-31.4 109.5-47.1 164.3-2.7 9.4-8.4 13.9-17.2 13.3-8.5-.5-13.5-5.4-15.1-15-13-77.9-26-155.9-38.9-233.8-3.7-22-7.3-44-11-65.9-.2-1.3-.7-2.4-1.4-4.3z"/></symbol></svg>